<svg width="0" height="0" class="hidden">
    <symbol fill="none" xmlns="http://www.w3.org/2000/svg" viewBox="0 0 7 5" id="arrow">
        <path d="M1 1.5L3.5 3.5L6 1.5" stroke-linecap="square"/>
    </symbol>
    <symbol fill="none" xmlns="http://www.w3.org/2000/svg" viewBox="0 0 6 10" id="arrow-left">
        <path d="M1 8.5L4.33333 5L1 1.5" stroke-width="2" stroke-linecap="round" stroke-linejoin="round"/>
    </symbol>
    <symbol fill="none" xmlns="http://www.w3.org/2000/svg" viewBox="0 0 20 20" id="earth">
        <path d="M9.99984 18.3331C14.6022 18.3331 18.3332 14.6021 18.3332 9.99975C18.3332 5.39737 14.6022 1.66641 9.99984 1.66641C5.39746 1.66641 1.6665 5.39737 1.6665 9.99975C1.6665 14.6021 5.39746 18.3331 9.99984 18.3331Z"
              stroke-width="1.5" stroke-miterlimit="10"/>
        <path d="M9.57292 18.3226C7.51563 16.156 6.25 13.2237 6.25 9.9997C6.25 6.77575 7.51563 3.84345 9.57292 1.67679"
              stroke-width="1.5" stroke-miterlimit="10"/>
        <path d="M10.4165 18.3226C12.4738 16.156 13.7394 13.2237 13.7394 9.9997C13.7394 6.77575 12.4738 3.84345 10.4165 1.67679"
              stroke-width="1.5" stroke-miterlimit="10"/>
        <path d="M16.6981 14.9581C14.9272 13.6925 12.5731 12.9164 10.0002 12.9164C7.42204 12.9164 5.07308 13.6872 3.30225 14.9581"
              stroke-width="1.5" stroke-miterlimit="10"/>
        <path d="M3.30225 5.04144C5.07308 6.30707 7.42725 7.08311 10.0002 7.08311C12.5783 7.08311 14.9272 6.31228 16.6981 5.04144"
              stroke-width="1.5" stroke-miterlimit="10"/>
    </symbol>
    <symbol fill="none" xmlns="http://www.w3.org/2000/svg" viewBox="0 0 20 20" id="ads">
        <path d="M8.07796 11.25L10.3332 16.6927C10.3918 16.8462 10.4196 17.0098 10.4149 17.1741C10.4103 17.3384 10.3733 17.5001 10.306 17.6501C10.2388 17.8001 10.1426 17.9353 10.0231 18.0481C9.90349 18.1608 9.76286 18.2489 9.60921 18.3073L8.65609 18.6718C8.50255 18.7305 8.33896 18.7583 8.17467 18.7536C8.01038 18.749 7.84862 18.712 7.69865 18.6447C7.54869 18.5775 7.41345 18.4813 7.30069 18.3617C7.18793 18.2422 7.09985 18.1015 7.0415 17.9479L4.32275 11.25"
              stroke-width="1.5" stroke-miterlimit="10"/>
        <path d="M1.25 8.12504C1.25 7.29624 1.57924 6.50139 2.16529 5.91533C2.75134 5.32928 3.5462 5.00004 4.375 5.00004H10.1667L16.6667 1.05733V15.1928L10.1719 11.25H4.375C3.5462 11.25 2.75134 10.9208 2.16529 10.3348C1.57924 9.7487 1.25 8.95385 1.25 8.12504V8.12504Z"
              stroke-width="1.5" stroke-miterlimit="10"/>
        <path d="M16.6665 5.74466C17.8175 5.74466 18.7498 6.71862 18.7498 7.91653C18.7498 9.11445 17.8175 10.0884 16.6665 10.0884"
              stroke-width="1.5" stroke-miterlimit="10"/>
    </symbol>
    <symbol fill="none" xmlns="http://www.w3.org/2000/svg" viewBox="0 0 20 20" id="articles">
        <path d="M4.58301 11.6668H12.083" stroke-width="1.5" stroke-miterlimit="10"/>
        <path d="M4.58301 9.16666H13.7497" stroke-width="1.5" stroke-miterlimit="10"/>
        <path d="M4.58301 6.66653H13.7497" stroke-width="1.5" stroke-miterlimit="10"/>
        <path d="M15.4167 4.1667H2.5V18.3334H15.4167V4.1667Z" stroke-width="1.5" stroke-miterlimit="10"/>
        <path d="M4.58301 4.16684V2.08351H17.4997V16.2502H15.4163" stroke-width="1.5" stroke-miterlimit="10"/>
    </symbol>
    <symbol fill="none" xmlns="http://www.w3.org/2000/svg" viewBox="0 0 20 20" id="house">
        <path d="M17.0832 7.04163V18.3333H2.9165V7.04163" stroke-width="1.5" stroke-miterlimit="10"/>
        <path d="M19.0363 8.55208L9.99984 1.5625L0.963379 8.55208" stroke-width="1.5" stroke-miterlimit="10"/>
    </symbol>
    <symbol fill="none" xmlns="http://www.w3.org/2000/svg" viewBox="0 0 20 20" id="newspaper">
        <path d="M7.5 4.58321H15.8333" stroke-width="1.5" stroke-miterlimit="10"/>
        <path d="M15.8333 7.08321H7.5" stroke-width="1.5" stroke-miterlimit="10"/>
        <path d="M7.5 9.58321H15.8333" stroke-width="1.5" stroke-miterlimit="10"/>
        <path d="M7.5 12.0832H11.6667" stroke-width="1.5" stroke-miterlimit="10"/>
        <path d="M5.41683 4.58321V2.08321H17.9168V16.2499C17.9168 17.1717 17.172 17.9165 16.2502 17.9165H3.75016C2.82829 17.9165 2.0835 17.1717 2.0835 16.2499V4.58321H5.41683Z"
              stroke-width="1.5" stroke-miterlimit="10"/>
        <path d="M3.75 17.9165C4.67187 17.9165 5.41667 17.1717 5.41667 16.2499V4.58321" stroke-width="1.5"
              stroke-miterlimit="10"/>
    </symbol>
    <symbol viewBox="0 0 20 20" fill="none" xmlns="http://www.w3.org/2000/svg" id="phone">
        <path d="M14.5832 18.7501C11.0155 18.7501 7.80713 17.2762 5.46859 14.9376C3.13005 12.5991 1.6665 9.40117 1.6665 5.83346C1.6665 5.08346 1.99984 4.41159 2.52067 3.95326L4.55713 2.01576C4.78109 1.79701 5.08317 1.6668 5.4165 1.6668C5.84879 1.6668 6.229 1.88555 6.45296 2.21888L8.52067 5.10951C8.6665 5.31263 8.74984 5.56263 8.74984 5.83346C8.74984 6.20326 8.58317 6.5418 8.32796 6.77096L6.67171 8.2293C6.44255 8.45846 6.24984 8.78138 6.24984 9.1668C6.24463 10.0835 6.92692 11.3439 7.99984 12.4168C9.07275 13.4897 10.3332 14.172 11.2498 14.1668C11.63 14.1668 11.9582 13.9741 12.1873 13.7449L13.6509 12.0939C13.88 11.8335 14.2134 11.672 14.5884 11.672C14.8592 11.672 15.104 11.7553 15.3123 11.9012L18.203 13.9689C18.5363 14.1928 18.755 14.573 18.755 15.0053C18.755 15.3387 18.6248 15.6408 18.4113 15.8647L16.4738 17.9012C16.005 18.4168 15.3332 18.7501 14.5832 18.7501Z"
              stroke-width="1.5" stroke-miterlimit="10" stroke-linecap="round"/>
    </symbol>
    <symbol viewBox="0 0 32 32" xmlns="http://www.w3.org/2000/svg" fill="none" id="about" stroke-linecap="round"
            stroke-linejoin="round" stroke-width="2">
        <path d="M16 14 L16 23 M16 8 L16 10"/>
        <circle cx="16" cy="16" r="14"/>
    </symbol>
    <symbol fill="none" xmlns="http://www.w3.org/2000/svg" viewBox="0 0 16 16" id="clock">
        <path d="M7.99992 14.6666C11.6818 14.6666 14.6666 11.6818 14.6666 7.99992C14.6666 4.31802 11.6818 1.33325 7.99992 1.33325C4.31802 1.33325 1.33325 4.31802 1.33325 7.99992C1.33325 11.6818 4.31802 14.6666 7.99992 14.6666Z"
              stroke="#828282" stroke-miterlimit="10"/>
        <path d="M12.1439 8.39705L8.06837 8.39705L8.06838 2.61673" stroke="#828282" stroke-miterlimit="10"/>
    </symbol>
    <symbol fill="none" xmlns="http://www.w3.org/2000/svg" viewBox="0 0 16 16" id="close">
        <path d="M0.727051 0.727264L15.2724 15.2726" stroke-miterlimit="10"/>
        <path d="M15.2725 0.727264L0.727098 15.2726" stroke-miterlimit="10"/>
    </symbol>
    <symbol fill="none" xmlns="http://www.w3.org/2000/svg" viewBox="0 0 16 16" id="search">
        <path d="M6 11C8.76142 11 11 8.76142 11 6C11 3.23858 8.76142 1 6 1C3.23858 1 1 3.23858 1 6C1 8.76142 3.23858 11 6 11Z"
              stroke-miterlimit="10"/>
        <path d="M15 15L10 10" stroke-miterlimit="10"/>
    </symbol>
    <symbol fill="none" xmlns="http://www.w3.org/2000/svg" viewBox="0 0 16 16" id="review-count">
        <path d="M1.66663 14.3331L5.28329 13.5956C6.19579 14.0665 7.23329 14.3331 8.33329 14.3331C12.0166 14.3331 15 11.3498 15 7.66646C15 3.98313 12.0166 0.999794 8.33329 0.999794C4.64996 0.999794 1.66663 3.98313 1.66663 7.66646C1.66663 8.76646 1.93329 9.80396 2.40413 10.7165L1.66663 14.3331Z"
              stroke-miterlimit="10"/>
        <path d="M4 7.66646H12.6667" stroke-miterlimit="10"/>
        <path d="M4 5.66646H12.6667" stroke-miterlimit="10"/>
        <path d="M4 9.66646H10" stroke-miterlimit="10"/>
    </symbol>
    <symbol fill="none" xmlns="http://www.w3.org/2000/svg" viewBox="0 0 16 16" id="post-views">
        <g clip-path="url(#clip0_280_3707)">
            <path d="M8 11C9.65685 11 11 9.65685 11 8C11 6.34315 9.65685 5 8 5C6.34315 5 5 6.34315 5 8C5 9.65685 6.34315 11 8 11Z"
                  stroke-miterlimit="10"/>
            <path d="M8.00007 3.33333C4.97091 3.33333 2.27924 5.1625 0.575073 8C2.27924 10.8375 4.97091 12.6667 8.00007 12.6667C11.0292 12.6667 13.7209 10.8375 15.4251 8C13.7209 5.1625 11.0292 3.33333 8.00007 3.33333Z"
                  stroke-miterlimit="10"/>
        </g>
        <defs>
            <clipPath id="clip0_280_3707">
                <rect width="16" height="16"/>
            </clipPath>
        </defs>
    </symbol>
    <symbol viewBox="0 0 46 53" xmlns="http://www.w3.org/2000/svg" id="play">
        <path d="M45.1053 26.4998L0.697357 52.1387L0.697357 0.860886L45.1053 26.4998Z"/>
    </symbol>
    <symbol xmlns="http://www.w3.org/2000/svg" viewBox="0 0 21 21" id="whatsapp">
        <path d="M17.9268 3.0625C15.9512 1.09375 13.3171 0 10.5366 0C4.7561 0 0.0731696 4.66667 0.0731696 10.4271C0.0731696 12.25 0.585366 14.0729 1.46341 15.6042L0 21L5.56098 19.5417C7.09756 20.3438 8.78049 20.7812 10.5366 20.7812C16.3171 20.7812 21 16.1146 21 10.3542C20.9268 7.65625 19.9024 5.03125 17.9268 3.0625ZM15.5854 14.1458C15.3659 14.7292 14.3415 15.3125 13.8293 15.3854C13.3902 15.4583 12.8049 15.4583 12.2195 15.3125C11.8537 15.1667 11.3415 15.0208 10.7561 14.7292C8.12195 13.6354 6.43903 11.0104 6.29268 10.7917C6.14634 10.6458 5.19512 9.40625 5.19512 8.09375C5.19512 6.78125 5.85366 6.19792 6.07317 5.90625C6.29268 5.61458 6.58536 5.61458 6.80488 5.61458C6.95122 5.61458 7.17073 5.61458 7.31707 5.61458C7.46341 5.61458 7.68293 5.54167 7.90244 6.05208C8.12195 6.5625 8.63414 7.875 8.70731 7.94792C8.78049 8.09375 8.78049 8.23958 8.70731 8.38542C8.63414 8.53125 8.56097 8.67708 8.41463 8.82292C8.26829 8.96875 8.12195 9.1875 8.04878 9.26042C7.90244 9.40625 7.7561 9.55208 7.90244 9.77083C8.04878 10.0625 8.56097 10.8646 9.36585 11.5937C10.3902 12.4687 11.1951 12.7604 11.4878 12.9063C11.7805 13.0521 11.9268 12.9792 12.0732 12.8333C12.2195 12.6875 12.7317 12.1042 12.878 11.8125C13.0244 11.5208 13.2439 11.5938 13.4634 11.6667C13.6829 11.7396 15 12.3958 15.2195 12.5417C15.5122 12.6875 15.6585 12.7604 15.7317 12.8333C15.8049 13.0521 15.8049 13.5625 15.5854 14.1458Z"/>
    </symbol>
    <symbol viewBox="0 0 18 18" xmlns="http://www.w3.org/2000/svg" id="telegram">
        <path d="M0.306863 8.32732L4.3302 9.82754L5.8986 14.8737C5.9668 15.2147 6.37595 15.2829 6.64872 15.0783L8.89904 13.2371C9.10362 13.0326 9.44459 13.0326 9.71735 13.2371L13.7407 16.1694C14.0134 16.374 14.4226 16.2376 14.4908 15.8966L17.4912 1.57632C17.5594 1.23536 17.2185 0.894408 16.8775 1.03079L0.306863 7.44083C-0.102288 7.57721 -0.102288 8.19094 0.306863 8.32732ZM5.69404 9.07743L13.6043 4.23581C13.7407 4.16762 13.8771 4.37219 13.7407 4.44039L7.26244 10.5095C7.05787 10.714 6.85329 10.9868 6.85329 11.3278L6.64872 12.9644C6.64872 13.1689 6.30776 13.2371 6.23956 12.9644L5.42125 9.96393C5.21668 9.62297 5.35308 9.21381 5.69404 9.07743Z"/>
    </symbol>
    <symbol viewBox="0 0 18 11" xmlns="http://www.w3.org/2000/svg" id="vk">
        <path d="M17.8328 9.86986C17.8328 9.79452 17.7612 9.79452 17.7612 9.71918C17.4747 9.11644 16.8302 8.36302 15.9707 7.53425C15.541 7.15754 15.3262 6.85616 15.1829 6.70548C14.9681 6.40411 14.9681 6.17809 15.0397 5.87672C15.1113 5.65069 15.3978 5.27397 15.8991 4.59589C16.1856 4.21917 16.3288 3.99315 16.5437 3.76713C17.6179 2.26028 18.1193 1.28082 17.976 0.828761L17.9044 0.753425C17.8328 0.678083 17.7612 0.602742 17.6179 0.602742C17.4747 0.5274 17.2599 0.5274 17.045 0.602742H14.3235C14.2519 0.602742 14.2519 0.602742 14.1087 0.602742C14.0371 0.602742 13.9655 0.602742 13.9655 0.602742H13.8938H13.8222L13.7506 0.678078C13.679 0.753421 13.679 0.753418 13.679 0.828761C13.3925 1.65753 13.0344 2.33561 12.6763 3.08904C12.4615 3.46575 12.2466 3.84247 12.0318 4.14384C11.8169 4.44521 11.6737 4.67123 11.5304 4.82192C11.3872 4.9726 11.244 5.04794 11.1723 5.19863C11.1007 5.27397 10.9575 5.34932 10.9575 5.27398C10.8859 5.27398 10.8143 5.27397 10.8143 5.19863C10.7426 5.12329 10.671 5.04794 10.5994 4.9726C10.5278 4.89726 10.5278 4.74657 10.4562 4.59589C10.4562 4.4452 10.4562 4.29452 10.4562 4.21917C10.4562 4.14383 10.4562 3.91781 10.4562 3.76713C10.4562 3.5411 10.4562 3.39041 10.4562 3.31507C10.4562 3.08904 10.4562 2.78768 10.4562 2.48631C10.4562 2.18494 10.4562 1.9589 10.4562 1.80822C10.4562 1.65753 10.4562 1.43151 10.4562 1.28082C10.4562 1.05479 10.4562 0.904103 10.4562 0.828761C10.4562 0.753418 10.3846 0.602738 10.3846 0.527395C10.313 0.452053 10.2413 0.376708 10.1697 0.301365C10.0981 0.226023 9.95486 0.226025 9.88324 0.150683C9.52515 0.0753402 9.09546 0 8.59413 0C7.44825 0 6.66045 0.0753448 6.37398 0.22603C6.23074 0.301372 6.08751 0.37671 6.01589 0.527395C5.87266 0.67808 5.87265 0.753425 5.94427 0.753425C6.30236 0.828768 6.58883 0.979446 6.73207 1.20547L6.80369 1.35617C6.87531 1.43151 6.87529 1.58219 6.94691 1.80822C7.01853 2.03424 7.01853 2.26027 7.01853 2.56164C7.01853 3.0137 7.01853 3.46576 7.01853 3.76713C7.01853 4.14384 6.94691 4.36986 6.94691 4.59589C6.94691 4.82191 6.87531 4.9726 6.80369 5.04795C6.73207 5.19863 6.73206 5.27398 6.66045 5.27398C6.66045 5.27398 6.66044 5.34931 6.58882 5.34931C6.51721 5.34931 6.44559 5.42466 6.30236 5.42466C6.23074 5.42466 6.08751 5.34932 6.01589 5.27398C5.87266 5.19863 5.72942 5.04795 5.6578 4.89726C5.51457 4.74658 5.37133 4.52054 5.22809 4.21917C5.08486 3.9178 4.87 3.61644 4.72676 3.16438L4.58354 2.86302C4.51192 2.71233 4.36868 2.41096 4.22545 2.03425C4.08221 1.65753 3.93897 1.35617 3.79574 0.979455C3.72412 0.82877 3.65251 0.753421 3.58089 0.678078H3.50927C3.50927 0.678078 3.43765 0.602742 3.36603 0.602742C3.29441 0.602742 3.2228 0.527395 3.15118 0.527395H0.572944C0.286473 0.527395 0.14324 0.602736 0.071622 0.678078L0 0.753425C0 0.753425 0 0.828765 0 0.904108C0 0.97945 4.37013e-06 1.05479 0.071622 1.20547C0.42971 2.10958 0.859414 3.0137 1.28912 3.91781C1.71883 4.74658 2.14854 5.5 2.43501 6.0274C2.7931 6.5548 3.07956 7.0822 3.43765 7.53425C3.79574 7.98631 4.01059 8.28767 4.0822 8.43836C4.22544 8.58904 4.29705 8.66438 4.36867 8.73972L4.58354 8.96575C4.72677 9.11644 4.94162 9.34247 5.22809 9.5685C5.51456 9.79452 5.87265 10.0205 6.23073 10.2466C6.58882 10.4726 7.01854 10.6233 7.44824 10.774C7.94957 10.9247 8.37927 11 8.80898 10.9247H9.88324C10.0981 10.9247 10.2413 10.8493 10.3846 10.6986L10.4562 10.6233C10.4562 10.5479 10.5278 10.5479 10.5278 10.4726C10.5278 10.3973 10.5278 10.3219 10.5278 10.1712C10.5278 9.86987 10.5278 9.64384 10.5994 9.41781C10.671 9.19179 10.671 9.0411 10.7427 8.89042C10.8143 8.73973 10.8859 8.66438 10.9575 8.58904C11.0291 8.5137 11.1007 8.43836 11.1007 8.43836H11.1723C11.3156 8.36302 11.5304 8.43836 11.6737 8.58904C11.8885 8.73973 12.1034 8.96576 12.2466 9.19178C12.3899 9.41781 12.6047 9.64384 12.8912 9.94521C13.1777 10.2466 13.3925 10.4726 13.5357 10.548L13.7506 10.6986C13.8938 10.774 14.0371 10.8493 14.2519 10.9247C14.4668 11 14.61 11 14.7532 11L17.1883 10.9247C17.4031 10.9247 17.6179 10.8493 17.7612 10.774C17.9044 10.6986 17.976 10.6233 17.976 10.4726C17.976 10.3973 17.976 10.2466 17.976 10.1712C17.8328 10.0206 17.8328 9.9452 17.8328 9.86986Z"/>
    </symbol>
    <symbol viewBox="0 0 18 14" xmlns="http://www.w3.org/2000/svg" id="twitter">
        <path d="M17.15 1.66249C16.5375 1.92499 15.8375 2.1 15.1375 2.1875C15.8375 1.75 16.45 1.05 16.7125 0.262503C16.0125 0.700003 15.3125 0.962503 14.4375 1.1375C13.825 0.437503 12.8625 0 11.9 0C9.97499 0 8.39999 1.575 8.39999 3.5C8.39999 3.7625 8.4 4.02499 8.4875 4.28749C5.6 4.11249 2.97499 2.7125 1.22499 0.612497C0.962495 1.1375 0.787495 1.75 0.787495 2.3625C0.787495 3.5875 1.4 4.6375 2.3625 5.25C1.75 5.25 1.22499 5.075 0.787495 4.8125C0.787495 6.475 2.01249 7.96249 3.58749 8.22499C3.32499 8.31249 2.975 8.3125 2.625 8.3125C2.3625 8.3125 2.1875 8.31249 1.925 8.22499C2.3625 9.62499 3.675 10.675 5.25 10.675C4.025 11.6375 2.5375 12.1625 0.875 12.1625C0.6125 12.1625 0.35 12.1625 0 12.075C1.575 13.0375 3.4125 13.65 5.425 13.65C11.9 13.65 15.4 8.3125 15.4 3.675V3.2375C16.1 2.975 16.7125 2.36249 17.15 1.66249Z"/>
    </symbol>
    <symbol viewBox="0 0 16 12" xmlns="http://www.w3.org/2000/svg" id="youtube">
        <path d="M15.499 4.29899C15.499 3.95959 15.4424 3.56364 15.4424 3.11111C15.3859 2.65859 15.3293 2.20606 15.2727 1.8101C15.1596 1.35757 14.9899 1.01818 14.6505 0.735355C14.3677 0.452527 13.9717 0.282825 13.5758 0.226259C12.2747 0.0565622 10.3515 0 7.7495 0C5.14748 0 3.16767 0.0565622 1.92323 0.226259C1.52727 0.282825 1.13131 0.452527 0.848485 0.735355C0.565657 1.01818 0.339391 1.35757 0.226259 1.8101C0.113128 2.20606 0.0565691 2.60202 0.0565691 3.11111C3.45165e-06 3.56364 0 3.95959 0 4.29899C0 4.63838 0 5.03434 0 5.6C0 6.16565 0 6.61818 0 6.90101C0 7.2404 0.0565691 7.63637 0.0565691 8.08889C0.113135 8.54142 0.169694 8.99393 0.226259 9.38989C0.339391 9.84242 0.509091 10.1818 0.848485 10.4646C1.13131 10.7475 1.52727 10.9172 1.92323 10.9737C3.22424 11.1434 5.14748 11.2 7.7495 11.2C10.3515 11.2 12.3313 11.1434 13.5758 10.9737C13.9717 10.9172 14.3677 10.7475 14.6505 10.4646C14.9333 10.1818 15.1596 9.84242 15.2727 9.38989C15.3859 8.99393 15.4424 8.59798 15.4424 8.08889C15.499 7.63637 15.499 7.2404 15.499 6.90101C15.499 6.56161 15.499 6.16565 15.499 5.6C15.499 5.03434 15.499 4.58181 15.499 4.29899ZM10.7475 6.05252L6.27879 8.82424C6.22223 8.8808 6.10909 8.93738 5.99596 8.93738C5.88283 8.93738 5.82627 8.93737 5.71314 8.88081C5.54344 8.76768 5.43031 8.59798 5.43031 8.37172V2.77171C5.43031 2.54545 5.54344 2.37576 5.71314 2.26263C5.88283 2.1495 6.10909 2.1495 6.27879 2.26263L10.7475 5.03434C10.9172 5.14747 11.0303 5.31717 11.0303 5.48687C11.0303 5.65656 10.9172 5.93939 10.7475 6.05252Z"/>
    </symbol>
    <symbol viewBox="0 0 11 17" xmlns="http://www.w3.org/2000/svg" id="ok">
        <path d="M10.0404 10.4615C10.4384 10.0635 10.4953 9.49499 10.1542 8.92642C9.86988 8.47157 9.35817 8.24415 8.78961 8.35786C8.56219 8.41472 8.33476 8.52843 8.10733 8.699C6.34479 9.89298 3.95683 9.83612 2.19429 8.64214C2.08058 8.58529 1.96686 8.52843 1.85315 8.47157C1.22773 8.18729 0.602323 8.30101 0.261186 8.86957C-0.136807 9.43814 -0.0799581 10.0636 0.431747 10.5753C0.54546 10.689 0.659172 10.7458 0.716028 10.8595L0.772888 10.9164C1.56887 11.5418 2.53543 11.9398 3.78627 12.1104L3.04714 12.8495C2.42172 13.4749 1.73945 14.1572 1.11403 14.7826C0.94346 14.9532 0.716028 15.2375 0.716028 15.6355C0.716028 16.1472 1.00031 16.6589 1.51202 16.8863C1.68259 17 1.85315 17 2.02372 17C2.308 17 2.64914 16.8863 2.87656 16.602C3.72941 15.7492 4.41169 15.0669 5.09396 14.3846C5.15082 14.3278 5.15081 14.3278 5.15081 14.3278C5.15081 14.3278 5.20767 14.3278 5.20767 14.3846C5.66252 14.8963 6.17423 15.3512 6.62908 15.8629C6.8565 16.0903 7.08392 16.3177 7.31135 16.5452C7.59563 16.8294 7.82305 16.9431 8.16419 16.9431C8.6759 17 9.24446 16.6589 9.47188 16.1472C9.69931 15.6923 9.5856 15.1237 9.1876 14.7826C8.61904 14.2141 8.05048 13.5886 7.42506 13.0201L6.45851 12.0535C6.97021 11.9967 7.53878 11.8829 8.05048 11.6555C8.90332 11.3712 9.52874 10.9732 10.0404 10.4615Z"/>
        <path d="M5.15081 8.86957C7.59563 8.86957 9.5856 6.93645 9.5856 4.49163C9.5856 3.29765 9.13074 2.16054 8.2779 1.30769C7.42506 0.454851 6.34479 0 5.20767 0C2.76286 0 0.829744 1.98996 0.772887 4.37792C0.772887 5.5719 1.22774 6.65217 2.08058 7.50501C2.87657 8.41471 3.95683 8.86957 5.15081 8.86957ZM3.89998 3.18395C4.24111 2.84281 4.69596 2.67224 5.15081 2.67224C6.17422 2.67224 6.91336 3.46823 6.91336 4.43478C6.91336 5.45819 6.11737 6.19732 5.15081 6.19732C4.1274 6.19732 3.38828 5.40134 3.38828 4.43478C3.38828 3.97993 3.55884 3.52509 3.89998 3.18395Z"/>
        <path d="M10.0404 10.4615C10.4384 10.0635 10.4953 9.49499 10.1542 8.92642C9.86988 8.47157 9.35817 8.24415 8.78961 8.35786C8.56219 8.41472 8.33476 8.52843 8.10733 8.699C6.34479 9.89298 3.95683 9.83612 2.19429 8.64214C2.08058 8.58529 1.96686 8.52843 1.85315 8.47157C1.22773 8.18729 0.602323 8.30101 0.261186 8.86957C-0.136807 9.43814 -0.0799581 10.0636 0.431747 10.5753C0.54546 10.689 0.659172 10.7458 0.716028 10.8595L0.772888 10.9164C1.56887 11.5418 2.53543 11.9398 3.78627 12.1104L3.04714 12.8495C2.42172 13.4749 1.73945 14.1572 1.11403 14.7826C0.94346 14.9532 0.716028 15.2375 0.716028 15.6355C0.716028 16.1472 1.00031 16.6589 1.51202 16.8863C1.68259 17 1.85315 17 2.02372 17C2.308 17 2.64914 16.8863 2.87656 16.602C3.72941 15.7492 4.41169 15.0669 5.09396 14.3846C5.15082 14.3278 5.15081 14.3278 5.15081 14.3278C5.15081 14.3278 5.20767 14.3278 5.20767 14.3846C5.66252 14.8963 6.17423 15.3512 6.62908 15.8629C6.8565 16.0903 7.08392 16.3177 7.31135 16.5452C7.59563 16.8294 7.82305 16.9431 8.16419 16.9431C8.6759 17 9.24446 16.6589 9.47188 16.1472C9.69931 15.6923 9.5856 15.1237 9.1876 14.7826C8.61904 14.2141 8.05048 13.5886 7.42506 13.0201L6.45851 12.0535C6.97021 11.9967 7.53878 11.8829 8.05048 11.6555C8.90332 11.3712 9.52874 10.9732 10.0404 10.4615Z"/>
    </symbol>

</svg>